# Blender v2.92.0 OBJ File: ''
# www.blender.org
mtllib Bedrock.mtl
o Cube
v 1.000000 1.000000 -1.000000
v 1.000000 -1.000000 -1.000000
v 1.000000 1.000000 1.000000
v 1.000000 -1.000000 1.000000
v -1.000000 1.000000 -1.000000
v -1.000000 -1.000000 -1.000000
v -1.000000 1.000000 1.000000
v -1.000000 -1.000000 1.000000
vt 0.001748 -0.010697
vt 1.000021 0.001245
vt 1.000021 1.004496
vt -0.003029 1.001630
vt -0.002299 -0.001287
vt 0.994024 0.003677
vt 1.000644 0.996690
vt -0.000644 1.000000
vt 0.993610 0.000000
vt 0.004002 0.000000
vt 0.004002 1.002363
vt 0.995998 0.997586
vt -0.005731 -0.001410
vt 1.002176 0.003555
vt 0.995557 0.998223
vt 0.002543 1.006497
vt -0.011930 0.003202
vt 1.004764 0.000813
vt 1.002376 0.998399
vt 0.004790 1.007953
vt 0.995998 0.003989
vt 0.004002 -0.000788
vt 0.001748 0.999619
vt 1.000775 1.003964
vn 0.0000 1.0000 0.0000
vn 0.0000 0.0000 1.0000
vn -1.0000 0.0000 0.0000
vn 0.0000 -1.0000 0.0000
vn 1.0000 0.0000 0.0000
vn 0.0000 0.0000 -1.0000
usemtl Material
s off
f 1/1/1 5/2/1 7/3/1 3/4/1
f 4/5/2 3/6/2 7/7/2 8/8/2
f 8/9/3 7/10/3 5/11/3 6/12/3
f 6/13/4 2/14/4 4/15/4 8/16/4
f 2/17/5 1/18/5 3/19/5 4/20/5
f 6/21/6 5/22/6 1/23/6 2/24/6
