# Blender v2.92.0 OBJ File: 'cube_holes.blend'
# www.blender.org
o Cube
v 1.000000 1.000000 -1.000000
v 1.000000 -1.000000 -1.000000
v 1.000000 1.000000 1.000000
v 1.000000 -1.000000 1.000000
v -1.000000 1.000000 -1.000000
v -1.000000 -1.000000 -1.000000
v -1.000000 1.000000 1.000000
v -1.000000 -1.000000 1.000000
v -1.000000 -0.644586 -0.627858
v 1.000000 -0.644586 -0.627858
v -1.000000 0.644586 -0.627858
v 1.000000 0.644586 -0.627858
v -1.000000 -0.644586 0.627858
v 1.000000 -0.644586 0.627858
v 1.000000 0.644586 0.627858
v -1.000000 0.644586 0.627858
v 0.000000 -1.000000 -0.506718
v 0.000000 -0.644586 -0.506718
v 0.000000 0.644586 -0.506718
v 0.000000 1.000000 -0.506718
v -0.193913 -1.000000 0.468146
v -0.193913 -0.644586 0.468146
v -0.193913 0.644586 0.468146
v -0.193913 1.000000 0.468146
v 0.098856 -1.000000 -0.496981
v 0.098856 -0.644586 -0.496981
v 0.098856 0.644586 -0.496981
v 0.098856 1.000000 -0.496981
v -0.281518 -1.000000 0.421320
v -0.281518 -0.644586 0.421320
v -0.281518 0.644586 0.421320
v -0.281518 1.000000 0.421320
v 0.193912 -1.000000 -0.468146
v 0.193912 -0.644586 -0.468146
v 0.193912 0.644586 -0.468146
v 0.193912 1.000000 -0.468146
v -0.358304 -1.000000 0.358303
v -0.358304 -0.644586 0.358303
v -0.358304 0.644586 0.358303
v -0.358304 1.000000 0.358303
v 0.281517 -1.000000 -0.421320
v 0.281517 -0.644586 -0.421320
v 0.281517 0.644586 -0.421320
v 0.281517 1.000000 -0.421320
v -0.421321 -1.000000 0.281517
v -0.421321 -0.644586 0.281517
v -0.421321 0.644586 0.281517
v -0.421321 1.000000 0.281517
v 0.358304 -1.000000 -0.358304
v 0.358304 -0.644586 -0.358304
v 0.358304 0.644586 -0.358304
v 0.358304 1.000000 -0.358304
v -0.468146 -1.000000 0.193912
v -0.468146 -0.644586 0.193912
v -0.468146 0.644586 0.193912
v -0.468146 1.000000 0.193912
v 0.421320 -1.000000 -0.281517
v 0.421320 -0.644586 -0.281517
v 0.421320 0.644586 -0.281517
v 0.421320 1.000000 -0.281517
v -0.496981 -1.000000 0.098855
v -0.496981 -0.644586 0.098855
v -0.496981 0.644586 0.098855
v -0.496981 1.000000 0.098855
v 0.468146 -1.000000 -0.193912
v 0.468146 -0.644586 -0.193912
v 0.468146 0.644586 -0.193912
v 0.468146 1.000000 -0.193912
v -0.506718 -1.000000 -0.000000
v -0.506718 -0.644586 -0.000000
v -0.506718 0.644586 -0.000000
v -0.506718 1.000000 -0.000000
v 0.496981 -1.000000 -0.098856
v 0.496981 -0.644586 -0.098856
v 0.496981 0.644586 -0.098856
v 0.496981 1.000000 -0.098856
v -0.496981 -1.000000 -0.098856
v -0.496981 -0.644586 -0.098856
v -0.496981 0.644586 -0.098856
v -0.496981 1.000000 -0.098856
v 0.506718 -1.000000 -0.000000
v 0.506718 -0.644586 -0.000000
v 0.506718 0.644586 -0.000000
v 0.506718 1.000000 -0.000000
v -0.468146 -1.000000 -0.193913
v -0.468146 -0.644586 -0.193913
v -0.468146 0.644586 -0.193913
v -0.468146 1.000000 -0.193913
v 0.496981 -1.000000 0.098856
v 0.496981 -0.644586 0.098856
v 0.496981 0.644586 0.098856
v 0.496981 1.000000 0.098856
v -0.421320 -1.000000 -0.281518
v -0.421320 -0.644586 -0.281518
v -0.421320 0.644586 -0.281518
v -0.421320 1.000000 -0.281518
v 0.468146 -1.000000 0.193912
v 0.468146 -0.644586 0.193912
v 0.468146 0.644586 0.193912
v 0.468146 1.000000 0.193912
v -0.358303 -1.000000 -0.358304
v -0.358303 -0.644586 -0.358304
v -0.358303 0.644586 -0.358304
v -0.358303 1.000000 -0.358304
v 0.421320 -1.000000 0.281517
v 0.421320 -0.644586 0.281517
v 0.421320 0.644586 0.281517
v 0.421320 1.000000 0.281517
v -0.281517 -1.000000 -0.421321
v -0.281517 -0.644586 -0.421321
v -0.281517 0.644586 -0.421321
v -0.281517 1.000000 -0.421321
v 0.358304 -1.000000 0.358304
v 0.358304 -0.644586 0.358304
v 0.358304 0.644586 0.358304
v 0.358304 1.000000 0.358304
v -0.193912 -1.000000 -0.468146
v -0.193912 -0.644586 -0.468146
v -0.193912 0.644586 -0.468146
v -0.193912 1.000000 -0.468146
v 0.281517 -1.000000 0.421320
v 0.281517 -0.644586 0.421320
v 0.281517 0.644586 0.421320
v 0.281517 1.000000 0.421320
v -0.098855 -1.000000 -0.496981
v -0.098855 -0.644586 -0.496981
v 0.193912 -1.000000 0.468146
v -0.098855 0.644586 -0.496981
v 0.193912 -0.644586 0.468146
v -0.098855 1.000000 -0.496981
v 0.193912 0.644586 0.468146
v 0.193912 1.000000 0.468146
v 0.098856 -1.000000 0.496981
v 0.098856 -0.644586 0.496981
v 0.098856 0.644586 0.496981
v 0.098856 1.000000 0.496981
v -0.000000 -1.000000 0.506718
v -0.000000 -0.644586 0.506718
v -0.000000 0.644586 0.506718
v -0.000000 1.000000 0.506718
v -0.098856 -1.000000 0.496981
v -0.098856 -0.644586 0.496981
v -0.098856 0.644586 0.496981
v -0.098856 1.000000 0.496981
v 0.000000 0.535962 0.627858
v 0.000000 0.535962 1.000000
v 0.000000 0.535962 -1.000000
v 0.000000 0.535962 -0.627858
v 0.650672 -0.591035 0.627858
v 0.650672 -0.591035 1.000000
v 0.650672 -0.591035 -1.000000
v 0.650672 -0.591035 -0.627858
v -0.650672 -0.591035 1.000000
v -0.650672 -0.591035 0.627858
v -0.650672 -0.591035 -0.627858
v -0.650672 -0.591035 -1.000000
vt 0.625000 0.000000
vt 0.580573 0.203482
vt 0.580573 0.046518
vt 0.375000 0.250000
vt 0.375000 0.000000
vt 0.419427 0.203482
vt 0.625000 0.500000
vt 0.580573 0.703482
vt 0.580573 0.546518
vt 0.375000 0.750000
vt 0.375000 0.500000
vt 0.419427 0.703482
vt 1.000000 0.595339
vt 0.968750 0.650308
vt 1.000000 0.650308
vt 1.000000 0.849692
vt 0.968750 0.904661
vt 1.000000 0.904660
vt 0.968750 0.595339
vt 0.937500 0.650308
vt 0.968750 0.849692
vt 0.937500 0.904661
vt 0.937500 0.595339
vt 0.906250 0.650308
vt 0.937500 0.849692
vt 0.906250 0.904661
vt 0.906250 0.595339
vt 0.875000 0.650308
vt 0.906250 0.849692
vt 0.875000 0.904661
vt 0.843750 0.595339
vt 0.875000 0.595339
vt 0.843750 0.849692
vt 0.875000 0.849692
vt 0.812500 0.904661
vt 0.812500 0.849692
vt 0.812500 0.650308
vt 0.812500 0.595339
vt 0.781250 0.595339
vt 0.781250 0.849692
vt 0.750000 0.595340
vt 0.781250 0.650308
vt 0.750000 0.849692
vt 0.781250 0.904660
vt 0.718750 0.595340
vt 0.750000 0.650308
vt 0.718750 0.849692
vt 0.750000 0.904660
vt 0.687500 0.595339
vt 0.718750 0.650308
vt 0.687500 0.849692
vt 0.718750 0.904661
vt 0.656250 0.595339
vt 0.687500 0.650308
vt 0.656250 0.849692
vt 0.687500 0.904661
vt 0.625000 0.595339
vt 0.656250 0.650308
vt 0.625000 0.849692
vt 0.656250 0.904661
vt 0.593750 0.595339
vt 0.625000 0.650308
vt 0.593750 0.849692
vt 0.625000 0.904661
vt 0.562500 0.595340
vt 0.593750 0.650308
vt 0.562500 0.849692
vt 0.593750 0.904660
vt 0.531250 0.595339
vt 0.562500 0.650308
vt 0.531250 0.849692
vt 0.562500 0.904661
vt 0.500000 0.595340
vt 0.531250 0.650308
vt 0.500000 0.849692
vt 0.531250 0.904660
vt 0.468750 0.595340
vt 0.500000 0.650308
vt 0.468750 0.849692
vt 0.500000 0.904660
vt 0.437500 0.595340
vt 0.468750 0.650308
vt 0.437500 0.849692
vt 0.468750 0.904660
vt 0.406250 0.595339
vt 0.437500 0.650308
vt 0.406250 0.849692
vt 0.437500 0.904661
vt 0.375000 0.595339
vt 0.406250 0.650308
vt 0.375000 0.849692
vt 0.406250 0.904661
vt 0.343750 0.650308
vt 0.375000 0.650308
vt 0.343750 0.904661
vt 0.375000 0.904660
vt 0.343750 0.595339
vt 0.312500 0.650308
vt 0.312500 0.904661
vt 0.343750 0.849692
vt 0.312500 0.849692
vt 0.312500 0.595339
vt 0.281250 0.650308
vt 0.281250 0.904661
vt 0.281250 0.595339
vt 0.250000 0.650308
vt 0.281250 0.849692
vt 0.250000 0.904661
vt 0.250000 0.595339
vt 0.218750 0.650308
vt 0.250000 0.849692
vt 0.218750 0.904661
vt 0.218750 0.595339
vt 0.187500 0.650308
vt 0.218750 0.849692
vt 0.187500 0.904661
vt 0.187500 0.595339
vt 0.156250 0.650308
vt 0.187500 0.849692
vt 0.156250 0.904661
vt 0.156250 0.595339
vt 0.125000 0.650308
vt 0.125000 0.904661
vt 0.156250 0.849692
vt 0.125000 0.849692
vt 0.125000 0.595339
vt 0.093750 0.650308
vt 0.093750 0.904661
vt 0.093750 0.595339
vt 0.062500 0.650308
vt 0.093750 0.849692
vt 0.062500 0.904661
vt 0.062500 0.595339
vt 0.031250 0.650308
vt 0.062500 0.849692
vt 0.031250 0.904661
vt 0.031250 0.595339
vt 0.000000 0.650308
vt 0.031250 0.849692
vt 0.000000 0.904661
vt 0.875000 0.500000
vt 0.762357 0.562877
vt 0.750000 0.561660
vt 0.750000 0.688340
vt 0.762357 0.687123
vt 0.875000 0.750000
vt 0.262357 0.562877
vt 0.250000 0.561660
vt 0.250000 0.688340
vt 0.262357 0.687123
vt 0.192692 0.750000
vt 0.258319 0.750000
vt 0.225506 0.725882
vt 0.258319 0.500000
vt 0.192692 0.500000
vt 0.225506 0.524118
vt 0.807308 0.500000
vt 0.741681 0.500000
vt 0.774495 0.524118
vt 0.741681 0.750000
vt 0.807308 0.750000
vt 0.774495 0.725882
vt 0.666667 0.826204
vt 1.000000 0.871372
vt 1.000000 0.826204
vt 1.000000 0.628628
vt 0.666667 0.673796
vt 1.000000 0.673796
vt 0.333333 0.673796
vt 0.666667 0.628628
vt 0.333333 0.628628
vt 0.333333 0.871372
vt 0.333333 0.826204
vt -0.000000 0.673796
vt -0.000000 0.826204
vt -0.000000 0.871372
vt 0.625000 0.750000
vt 0.625000 1.000000
vt 0.566995 0.875000
vt 0.375000 1.000000
vt 0.426121 0.793666
vt 0.426121 0.956334
vt 0.625000 0.250000
vt 0.566995 0.375000
vt 0.426121 0.456334
vt 0.625000 0.383319
vt 0.625000 0.317692
vt 0.603935 0.350506
vt 0.375000 0.317692
vt 0.385385 0.371856
vt 0.385385 0.329155
vt 0.625000 0.932308
vt 0.625000 0.866681
vt 0.603935 0.899494
vt 0.375000 0.932308
vt 0.385385 0.878144
vt 0.375000 0.866681
vt 0.419427 0.046518
vt 0.419427 0.546518
vt 0.843750 0.650308
vt 0.843750 0.904661
vt 0.000000 0.595340
vt 0.000000 0.849692
vt 0.697335 0.660190
vt 0.705212 0.669788
vt 0.794788 0.669788
vt 0.802665 0.660190
vt 0.808518 0.649239
vt 0.691482 0.649239
vt 0.687877 0.637357
vt 0.813340 0.625000
vt 0.812123 0.637357
vt 0.686660 0.625000
vt 0.812123 0.612643
vt 0.687877 0.612643
vt 0.691482 0.600761
vt 0.808518 0.600761
vt 0.802665 0.589810
vt 0.697335 0.589810
vt 0.705212 0.580212
vt 0.794788 0.580212
vt 0.785190 0.572335
vt 0.714810 0.572335
vt 0.725761 0.566482
vt 0.774239 0.566482
vt 0.737643 0.562877
vt 0.785190 0.677665
vt 0.714810 0.677665
vt 0.725761 0.683518
vt 0.774239 0.683518
vt 0.737643 0.687123
vt 0.197335 0.660190
vt 0.205212 0.669788
vt 0.125000 0.750000
vt 0.294788 0.669788
vt 0.302665 0.660190
vt 0.308518 0.649239
vt 0.191482 0.649239
vt 0.187877 0.637357
vt 0.313340 0.625000
vt 0.312123 0.637357
vt 0.186660 0.625000
vt 0.125000 0.500000
vt 0.312123 0.612643
vt 0.187877 0.612643
vt 0.191482 0.600761
vt 0.308518 0.600761
vt 0.302665 0.589810
vt 0.197335 0.589810
vt 0.205212 0.580212
vt 0.294788 0.580212
vt 0.285190 0.572335
vt 0.214810 0.572335
vt 0.225761 0.566482
vt 0.274239 0.566482
vt 0.237643 0.562877
vt 0.285190 0.677665
vt 0.214810 0.677665
vt 0.225761 0.683518
vt 0.274239 0.683518
vt 0.237643 0.687123
vt 0.213748 0.696334
vt 0.211680 0.681047
vt 0.239331 0.681047
vt 0.237263 0.696335
vt 0.234743 0.708881
vt 0.216268 0.708880
vt 0.219143 0.718203
vt 0.231868 0.718203
vt 0.228749 0.723944
vt 0.222262 0.723944
vt 0.240867 0.663606
vt 0.208878 0.625000
vt 0.210144 0.663606
vt 0.209198 0.644681
vt 0.241813 0.644681
vt 0.242133 0.625000
vt 0.241813 0.605319
vt 0.209198 0.605319
vt 0.210144 0.586394
vt 0.240867 0.586394
vt 0.239331 0.568953
vt 0.211680 0.568953
vt 0.213748 0.553665
vt 0.237263 0.553666
vt 0.234743 0.541119
vt 0.216268 0.541119
vt 0.219143 0.531797
vt 0.231868 0.531797
vt 0.228749 0.526056
vt 0.222262 0.526056
vt 0.789856 0.663606
vt 0.788320 0.681047
vt 0.757867 0.625000
vt 0.760670 0.681047
vt 0.759133 0.663606
vt 0.758187 0.644681
vt 0.790802 0.644681
vt 0.791122 0.625000
vt 0.790802 0.605319
vt 0.758187 0.605319
vt 0.759133 0.586394
vt 0.789856 0.586394
vt 0.788320 0.568953
vt 0.760670 0.568953
vt 0.762737 0.553665
vt 0.786252 0.553665
vt 0.783732 0.541119
vt 0.765257 0.541119
vt 0.768132 0.531797
vt 0.780857 0.531797
vt 0.777738 0.526056
vt 0.771251 0.526056
vt 0.762737 0.696335
vt 0.786252 0.696335
vt 0.783732 0.708880
vt 0.765257 0.708881
vt 0.768132 0.718203
vt 0.780858 0.718203
vt 0.777738 0.723944
vt 0.771251 0.723944
vt 0.666667 0.871372
vt -0.000000 0.628628
vt 0.426121 0.293666
vt 0.375000 0.383319
vt 0.385385 0.920845
vn -1.0000 0.0000 0.0000
vn 1.0000 0.0000 0.0000
vn -0.0980 0.0000 0.9952
vn -0.2903 0.0000 0.9569
vn -0.4714 0.0000 0.8819
vn -0.6344 0.0000 0.7730
vn -0.7730 0.0000 0.6344
vn -0.8819 0.0000 0.4714
vn -0.9569 0.0000 0.2903
vn -0.9952 0.0000 0.0980
vn -0.9952 0.0000 -0.0980
vn -0.9569 0.0000 -0.2903
vn -0.8819 0.0000 -0.4714
vn -0.7730 0.0000 -0.6344
vn -0.6344 0.0000 -0.7730
vn -0.4714 0.0000 -0.8819
vn -0.2903 0.0000 -0.9569
vn -0.0980 0.0000 -0.9952
vn 0.0980 0.0000 -0.9952
vn 0.2903 0.0000 -0.9569
vn 0.4714 0.0000 -0.8819
vn 0.6344 0.0000 -0.7730
vn 0.7730 0.0000 -0.6344
vn 0.8819 0.0000 -0.4714
vn 0.9569 0.0000 -0.2903
vn 0.9952 0.0000 -0.0980
vn 0.9952 0.0000 0.0980
vn 0.9569 0.0000 0.2903
vn 0.8819 0.0000 0.4714
vn 0.7730 0.0000 0.6344
vn 0.6344 0.0000 0.7730
vn 0.4714 0.0000 0.8819
vn 0.2903 0.0000 0.9569
vn 0.0980 0.0000 0.9952
vn 0.0000 1.0000 -0.0000
vn 0.0000 -1.0000 0.0000
vn -0.8660 -0.5000 0.0000
vn 0.8660 -0.5000 0.0000
vn 0.0000 0.0000 1.0000
vn 0.0000 0.0000 -1.0000
s off
f 7/1/1 11/2/1 16/3/1
f 6/4/1 8/5/1 9/6/1
f 1/7/2 15/8/2 12/9/2
f 4/10/2 2/11/2 14/12/2
f 17/13/3 26/14/3 18/15/3
f 19/16/3 28/17/3 20/18/3
f 25/19/4 34/20/4 26/14/4
f 27/21/4 36/22/4 28/17/4
f 33/23/5 42/24/5 34/20/5
f 35/25/5 44/26/5 36/22/5
f 41/27/6 50/28/6 42/24/6
f 43/29/6 52/30/6 44/26/6
f 57/31/7 50/28/7 49/32/7
f 59/33/7 52/30/7 51/34/7
f 68/35/8 59/33/8 67/36/8
f 66/37/8 57/31/8 65/38/8
f 73/39/9 66/37/9 65/38/9
f 75/40/9 68/35/9 67/36/9
f 81/41/10 74/42/10 73/39/10
f 83/43/10 76/44/10 75/40/10
f 89/45/11 82/46/11 81/41/11
f 91/47/11 84/48/11 83/43/11
f 97/49/12 90/50/12 89/45/12
f 99/51/12 92/52/12 91/47/12
f 105/53/13 98/54/13 97/49/13
f 107/55/13 100/56/13 99/51/13
f 113/57/14 106/58/14 105/53/14
f 115/59/14 108/60/14 107/55/14
f 121/61/15 114/62/15 113/57/15
f 123/63/15 116/64/15 115/59/15
f 127/65/16 122/66/16 121/61/16
f 131/67/16 124/68/16 123/63/16
f 133/69/17 129/70/17 127/65/17
f 135/71/17 132/72/17 131/67/17
f 137/73/18 134/74/18 133/69/18
f 139/75/18 136/76/18 135/71/18
f 141/77/19 138/78/19 137/73/19
f 143/79/19 140/80/19 139/75/19
f 21/81/20 142/82/20 141/77/20
f 23/83/20 144/84/20 143/79/20
f 29/85/21 22/86/21 21/81/21
f 31/87/21 24/88/21 23/83/21
f 37/89/22 30/90/22 29/85/22
f 39/91/22 32/92/22 31/87/22
f 37/89/23 46/93/23 38/94/23
f 39/91/23 48/95/23 40/96/23
f 45/97/24 54/98/24 46/93/24
f 56/99/24 47/100/24 55/101/24
f 53/102/25 62/103/25 54/98/25
f 55/101/25 64/104/25 56/99/25
f 61/105/26 70/106/26 62/103/26
f 63/107/26 72/108/26 64/104/26
f 69/109/27 78/110/27 70/106/27
f 71/111/27 80/112/27 72/108/27
f 77/113/28 86/114/28 78/110/28
f 79/115/28 88/116/28 80/112/28
f 85/117/29 94/118/29 86/114/29
f 87/119/29 96/120/29 88/116/29
f 93/121/30 102/122/30 94/118/30
f 104/123/30 95/124/30 103/125/30
f 101/126/31 110/127/31 102/122/31
f 103/125/31 112/128/31 104/123/31
f 109/129/32 118/130/32 110/127/32
f 111/131/32 120/132/32 112/128/32
f 117/133/33 126/134/33 118/130/33
f 119/135/33 130/136/33 120/132/33
f 125/137/34 18/138/34 126/134/34
f 128/139/34 20/140/34 130/136/34
f 5/141/35 130/142/35 20/143/35
f 140/144/35 144/145/35 7/146/35
f 2/11/36 25/147/36 17/148/36
f 137/149/36 133/150/36 4/10/36
f 13/151/35 14/152/35 138/153/35
f 10/154/35 9/155/35 18/156/35
f 11/157/36 12/158/36 19/159/36
f 15/160/36 16/161/36 139/162/36
f 149/163/37 146/164/37 145/165/37
f 147/166/37 152/167/37 148/168/37
f 155/169/35 151/170/35 156/171/35
f 153/172/35 149/163/35 154/173/35
f 156/171/38 148/174/38 155/169/38
f 153/172/38 145/175/38 146/176/38
f 3/177/39 7/178/39 146/179/39
f 8/180/39 150/181/39 153/182/39
f 5/183/40 1/7/40 147/184/40
f 6/4/40 151/185/40 2/11/40
f 12/186/39 11/187/39 148/188/39
f 9/189/39 152/190/39 155/191/39
f 16/192/40 15/193/40 145/194/40
f 13/195/40 149/196/40 14/197/40
f 7/1/1 5/183/1 11/2/1
f 11/2/1 5/183/1 6/4/1
f 8/5/1 7/1/1 16/3/1
f 8/5/1 16/3/1 13/198/1
f 9/6/1 11/2/1 6/4/1
f 8/5/1 13/198/1 9/6/1
f 1/7/2 3/177/2 15/8/2
f 15/8/2 3/177/2 4/10/2
f 2/11/2 1/7/2 12/9/2
f 2/11/2 12/9/2 10/199/2
f 14/12/2 15/8/2 4/10/2
f 2/11/2 10/199/2 14/12/2
f 17/13/3 25/19/3 26/14/3
f 19/16/3 27/21/3 28/17/3
f 25/19/4 33/23/4 34/20/4
f 27/21/4 35/25/4 36/22/4
f 33/23/5 41/27/5 42/24/5
f 35/25/5 43/29/5 44/26/5
f 41/27/6 49/32/6 50/28/6
f 43/29/6 51/34/6 52/30/6
f 57/31/7 58/200/7 50/28/7
f 59/33/7 60/201/7 52/30/7
f 68/35/8 60/201/8 59/33/8
f 66/37/8 58/200/8 57/31/8
f 73/39/9 74/42/9 66/37/9
f 75/40/9 76/44/9 68/35/9
f 81/41/10 82/46/10 74/42/10
f 83/43/10 84/48/10 76/44/10
f 89/45/11 90/50/11 82/46/11
f 91/47/11 92/52/11 84/48/11
f 97/49/12 98/54/12 90/50/12
f 99/51/12 100/56/12 92/52/12
f 105/53/13 106/58/13 98/54/13
f 107/55/13 108/60/13 100/56/13
f 113/57/14 114/62/14 106/58/14
f 115/59/14 116/64/14 108/60/14
f 121/61/15 122/66/15 114/62/15
f 123/63/15 124/68/15 116/64/15
f 127/65/16 129/70/16 122/66/16
f 131/67/16 132/72/16 124/68/16
f 133/69/17 134/74/17 129/70/17
f 135/71/17 136/76/17 132/72/17
f 137/73/18 138/78/18 134/74/18
f 139/75/18 140/80/18 136/76/18
f 141/77/19 142/82/19 138/78/19
f 143/79/19 144/84/19 140/80/19
f 21/81/20 22/86/20 142/82/20
f 23/83/20 24/88/20 144/84/20
f 29/85/21 30/90/21 22/86/21
f 31/87/21 32/92/21 24/88/21
f 37/89/22 38/94/22 30/90/22
f 39/91/22 40/96/22 32/92/22
f 37/89/23 45/97/23 46/93/23
f 39/91/23 47/100/23 48/95/23
f 45/97/24 53/102/24 54/98/24
f 56/99/24 48/95/24 47/100/24
f 53/102/25 61/105/25 62/103/25
f 55/101/25 63/107/25 64/104/25
f 61/105/26 69/109/26 70/106/26
f 63/107/26 71/111/26 72/108/26
f 69/109/27 77/113/27 78/110/27
f 71/111/27 79/115/27 80/112/27
f 77/113/28 85/117/28 86/114/28
f 79/115/28 87/119/28 88/116/28
f 85/117/29 93/121/29 94/118/29
f 87/119/29 95/124/29 96/120/29
f 93/121/30 101/126/30 102/122/30
f 104/123/30 96/120/30 95/124/30
f 101/126/31 109/129/31 110/127/31
f 103/125/31 111/131/31 112/128/31
f 109/129/32 117/133/32 118/130/32
f 111/131/32 119/135/32 120/132/32
f 117/133/33 125/137/33 126/134/33
f 119/135/33 128/139/33 130/136/33
f 125/137/34 17/202/34 18/138/34
f 128/139/34 19/203/34 20/140/34
f 108/204/35 116/205/35 3/177/35
f 7/146/35 40/206/35 48/207/35
f 7/146/35 48/207/35 56/208/35
f 100/209/35 108/204/35 3/177/35
f 92/210/35 100/209/35 3/177/35
f 5/141/35 7/146/35 72/211/35
f 7/146/35 56/208/35 64/212/35
f 7/146/35 64/212/35 72/211/35
f 92/210/35 3/177/35 84/213/35
f 3/177/35 1/7/35 84/213/35
f 5/141/35 72/211/35 80/214/35
f 76/215/35 84/213/35 1/7/35
f 68/216/35 76/215/35 1/7/35
f 5/141/35 80/214/35 88/217/35
f 5/141/35 88/217/35 96/218/35
f 60/219/35 68/216/35 1/7/35
f 52/220/35 60/219/35 1/7/35
f 5/141/35 96/218/35 104/221/35
f 5/141/35 104/221/35 112/222/35
f 44/223/35 52/220/35 1/7/35
f 36/224/35 44/223/35 1/7/35
f 5/141/35 112/222/35 120/225/35
f 5/141/35 120/225/35 130/142/35
f 36/224/35 1/7/35 28/226/35
f 1/7/35 5/141/35 20/143/35
f 28/226/35 1/7/35 20/143/35
f 32/227/35 40/206/35 7/146/35
f 3/177/35 116/205/35 124/228/35
f 3/177/35 124/228/35 132/229/35
f 24/230/35 32/227/35 7/146/35
f 144/145/35 24/230/35 7/146/35
f 7/146/35 3/177/35 140/144/35
f 3/177/35 132/229/35 136/231/35
f 3/177/35 136/231/35 140/144/35
f 45/232/36 37/233/36 8/234/36
f 4/10/36 113/235/36 105/236/36
f 4/10/36 105/236/36 97/237/36
f 53/238/36 45/232/36 8/234/36
f 61/239/36 53/238/36 8/234/36
f 2/11/36 4/10/36 81/240/36
f 4/10/36 97/237/36 89/241/36
f 4/10/36 89/241/36 81/240/36
f 61/239/36 8/234/36 69/242/36
f 8/234/36 6/243/36 69/242/36
f 2/11/36 81/240/36 73/244/36
f 77/245/36 69/242/36 6/243/36
f 85/246/36 77/245/36 6/243/36
f 2/11/36 73/244/36 65/247/36
f 2/11/36 65/247/36 57/248/36
f 93/249/36 85/246/36 6/243/36
f 101/250/36 93/249/36 6/243/36
f 2/11/36 57/248/36 49/251/36
f 2/11/36 49/251/36 41/252/36
f 109/253/36 101/250/36 6/243/36
f 117/254/36 109/253/36 6/243/36
f 2/11/36 41/252/36 33/255/36
f 2/11/36 33/255/36 25/147/36
f 117/254/36 6/243/36 125/256/36
f 6/243/36 2/11/36 17/148/36
f 125/256/36 6/243/36 17/148/36
f 121/257/36 113/235/36 4/10/36
f 8/234/36 37/233/36 29/258/36
f 8/234/36 29/258/36 21/259/36
f 127/260/36 121/257/36 4/10/36
f 133/150/36 127/260/36 4/10/36
f 4/10/36 8/234/36 137/149/36
f 8/234/36 21/259/36 141/261/36
f 8/234/36 141/261/36 137/149/36
f 38/262/35 46/263/35 13/151/35
f 14/152/35 106/264/35 114/265/35
f 14/152/35 114/265/35 122/266/35
f 30/267/35 38/262/35 13/151/35
f 22/268/35 30/267/35 13/151/35
f 14/152/35 122/266/35 129/269/35
f 14/152/35 129/269/35 134/270/35
f 142/271/35 22/268/35 13/151/35
f 14/152/35 134/270/35 138/153/35
f 138/153/35 142/271/35 13/151/35
f 98/272/35 106/264/35 14/152/35
f 9/155/35 13/151/35 70/273/35
f 13/151/35 46/263/35 54/274/35
f 13/151/35 54/274/35 62/275/35
f 98/272/35 14/152/35 90/276/35
f 14/152/35 10/154/35 82/277/35
f 90/276/35 14/152/35 82/277/35
f 13/151/35 62/275/35 70/273/35
f 74/278/35 82/277/35 10/154/35
f 9/155/35 70/273/35 78/279/35
f 9/155/35 78/279/35 86/280/35
f 66/281/35 74/278/35 10/154/35
f 58/282/35 66/281/35 10/154/35
f 9/155/35 86/280/35 94/283/35
f 9/155/35 94/283/35 102/284/35
f 50/285/35 58/282/35 10/154/35
f 42/286/35 50/285/35 10/154/35
f 9/155/35 102/284/35 110/287/35
f 9/155/35 110/287/35 118/288/35
f 34/289/35 42/286/35 10/154/35
f 26/290/35 34/289/35 10/154/35
f 9/155/35 118/288/35 126/291/35
f 18/156/35 26/290/35 10/154/35
f 9/155/35 126/291/35 18/156/35
f 55/292/36 47/293/36 16/161/36
f 12/158/36 15/160/36 83/294/36
f 15/160/36 107/295/36 99/296/36
f 15/160/36 99/296/36 91/297/36
f 55/292/36 16/161/36 63/298/36
f 16/161/36 11/157/36 71/299/36
f 63/298/36 16/161/36 71/299/36
f 15/160/36 91/297/36 83/294/36
f 79/300/36 71/299/36 11/157/36
f 12/158/36 83/294/36 75/301/36
f 12/158/36 75/301/36 67/302/36
f 87/303/36 79/300/36 11/157/36
f 95/304/36 87/303/36 11/157/36
f 12/158/36 67/302/36 59/305/36
f 12/158/36 59/305/36 51/306/36
f 103/307/36 95/304/36 11/157/36
f 111/308/36 103/307/36 11/157/36
f 12/158/36 51/306/36 43/309/36
f 12/158/36 43/309/36 35/310/36
f 119/311/36 111/308/36 11/157/36
f 128/312/36 119/311/36 11/157/36
f 12/158/36 35/310/36 27/313/36
f 19/159/36 128/312/36 11/157/36
f 12/158/36 27/313/36 19/159/36
f 115/314/36 107/295/36 15/160/36
f 16/161/36 47/293/36 39/315/36
f 16/161/36 39/315/36 31/316/36
f 123/317/36 115/314/36 15/160/36
f 131/318/36 123/317/36 15/160/36
f 16/161/36 31/316/36 23/319/36
f 16/161/36 23/319/36 143/320/36
f 135/321/36 131/318/36 15/160/36
f 16/161/36 143/320/36 139/162/36
f 139/162/36 135/321/36 15/160/36
f 149/163/37 150/322/37 146/164/37
f 147/166/37 151/170/37 152/167/37
f 155/169/35 152/167/35 151/170/35
f 153/172/35 150/322/35 149/163/35
f 156/171/38 147/323/38 148/174/38
f 153/172/38 154/173/38 145/175/38
f 150/181/39 4/10/39 3/177/39
f 7/178/39 8/180/39 153/182/39
f 146/179/39 150/181/39 3/177/39
f 7/178/39 153/182/39 146/179/39
f 8/180/39 4/10/39 150/181/39
f 1/7/40 2/11/40 151/185/40
f 147/184/40 156/324/40 5/183/40
f 156/324/40 6/4/40 5/183/40
f 1/7/40 151/185/40 147/184/40
f 6/4/40 156/324/40 151/185/40
f 148/188/39 152/190/39 12/186/39
f 152/190/39 10/325/39 12/186/39
f 11/187/39 9/189/39 155/191/39
f 11/187/39 155/191/39 148/188/39
f 9/189/39 10/325/39 152/190/39
f 145/194/40 154/326/40 16/192/40
f 154/326/40 13/195/40 16/192/40
f 15/193/40 14/197/40 149/196/40
f 15/193/40 149/196/40 145/194/40
f 13/195/40 154/326/40 149/196/40
