# Blender v2.92.0 OBJ File: ''
# www.blender.org
mtllib pickaxe.mtl
o Cylinder
v 0.129904 -1.500000 -0.075000
v 0.129904 1.500000 -0.075000
v 0.129904 -1.500000 0.075000
v 0.129904 1.500000 0.075000
v 0.129904 1.405998 -0.075000
v 0.129904 1.178384 -0.075000
v 0.129904 1.405998 0.075000
v 0.129904 1.178384 0.075000
v 0.129904 1.178384 -0.075000
v 0.129904 1.405998 0.075000
v 0.129904 1.405998 -0.075000
v 0.129904 1.178384 0.075000
v 0.129904 1.178384 -0.075000
v 0.129904 1.178384 -0.075000
v 0.129904 1.178384 0.075000
v 0.129904 1.405998 0.075000
v 0.129904 1.405998 -0.075000
v 0.129904 1.405998 -0.075000
v 0.129904 1.178384 -0.075000
v 0.129904 1.405998 0.075000
v 0.129904 1.178384 0.075000
v 0.129904 1.178384 0.075000
v 0.129904 1.405998 0.075000
v 0.129904 1.405998 -0.075000
v 0.253546 1.405998 0.146385
v 0.253546 1.178384 0.146385
v 0.253546 1.405998 -0.146385
v 0.253546 1.178384 -0.146385
v 0.129904 1.178384 -0.075000
v 0.129904 1.178384 0.075000
v 0.129904 1.405998 0.075000
v 0.129904 1.405998 -0.075000
v 0.981250 1.250983 0.094025
v 0.981250 1.104784 0.094025
v 0.981250 1.250983 -0.094025
v 0.981250 1.104784 -0.094025
v 1.282009 1.049421 0.000000
v 0.625785 1.339512 -0.123928
v 0.625785 1.146817 -0.123928
v 0.625785 1.146817 0.123928
v 0.625785 1.339512 0.123928
v 0.000000 -1.500000 -0.150000
v 0.000000 1.500000 -0.150000
v -0.129904 -1.500000 -0.075000
v -0.129904 1.500000 -0.075000
v -0.129904 -1.500000 0.075000
v -0.129904 1.500000 0.075000
v 0.000000 -1.500000 0.150000
v 0.000000 1.500000 0.150000
v 0.000000 1.178384 -0.150000
v 0.000000 1.405998 -0.150000
v -0.129904 1.405998 -0.075000
v -0.129904 1.178384 -0.075000
v -0.129904 1.405998 0.075000
v -0.129904 1.178384 0.075000
v 0.000000 1.405998 0.150000
v 0.000000 1.178384 0.150000
v 0.000000 1.178384 -0.150000
v -0.129904 1.178384 -0.075000
v 0.000000 1.405998 0.150000
v -0.129904 1.405998 0.075000
v 0.000000 1.178384 0.150000
v -0.129904 1.405998 -0.075000
v 0.000000 1.405998 -0.150000
v -0.129904 1.178384 0.075000
v 0.000000 1.405998 0.150000
v 0.000000 1.405998 0.150000
v -0.129904 1.178384 -0.075000
v 0.000000 1.178384 -0.150000
v -0.129904 1.178384 -0.075000
v 0.000000 1.405998 -0.150000
v 0.000000 1.178384 0.150000
v -0.129904 1.178384 0.075000
v -0.129904 1.405998 0.075000
v -0.129904 1.405998 -0.075000
v 0.000000 1.178384 -0.150000
v -0.129904 1.405998 -0.075000
v -0.129904 1.178384 -0.075000
v -0.129904 1.405998 0.075000
v -0.129904 1.178384 0.075000
v 0.000000 1.405998 0.150000
v 0.000000 1.178384 0.150000
v 0.000000 1.405998 -0.150000
v 0.000000 1.178384 -0.150000
v 0.000000 1.405998 -0.150000
v 0.000000 1.178384 0.150000
v -0.129904 1.178384 0.075000
v -0.129904 1.405998 0.075000
v -0.129904 1.405998 -0.075000
v 0.000000 1.405998 0.217035
v 0.000000 1.178384 0.217035
v 0.000000 1.405998 -0.217035
v 0.000000 1.178384 -0.217035
v -0.253546 1.405998 0.146385
v -0.253546 1.178384 0.146385
v -0.253546 1.405998 -0.146385
v -0.253546 1.178384 -0.146385
v 0.000000 1.405998 0.150000
v -0.129904 1.178384 -0.075000
v 0.000000 1.178384 -0.111197
v 0.000000 1.405998 -0.150000
v 0.000000 1.178384 0.111197
v -0.129904 1.178384 0.075000
v -0.129904 1.405998 0.075000
v -0.129904 1.405998 -0.075000
v -0.981250 1.250983 0.094025
v -0.981250 1.104784 0.094025
v -0.981250 1.250983 -0.094025
v -0.981250 1.104784 -0.094025
v -1.282009 1.049421 0.000000
v -0.625785 1.339512 -0.123928
v -0.625785 1.146817 -0.123928
v -0.625785 1.146817 0.123928
v -0.625785 1.339512 0.123928
vt 1.000000 1.000000
vt 0.833333 0.984333
vt 1.000000 0.984333
vt 0.833333 1.000000
vt 0.666667 0.984333
vt 0.666667 1.000000
vt 0.500000 0.984333
vt 0.957846 0.370000
vt 0.750000 0.010000
vt 0.750000 0.490000
vt 0.833333 0.817666
vt 0.666667 0.817666
vt 0.666667 0.817666
vt 0.666667 0.817666
vt 0.500000 0.500000
vt 0.666667 0.500000
vt 0.833333 0.817666
vt 0.833333 0.500000
vt 0.666667 0.984333
vt 0.833333 0.984333
vt 0.833333 0.984333
vt 1.000000 0.817666
vt 1.000000 0.500000
vt 0.500000 0.817666
vt 0.500000 0.817666
vt 0.000000 0.000000
vt 0.000000 0.000000
vt 0.000000 0.000000
vt 0.000000 0.000000
vt 0.000000 0.000000
vt 0.000000 0.000000
vt 0.833333 0.984333
vt 1.000000 0.984333
vt 0.000000 0.000000
vt 0.000000 0.000000
vt 1.000000 0.817666
vt 0.833333 0.817666
vt 0.000000 0.000000
vt 0.000000 0.000000
vt 0.000000 0.000000
vt 0.000000 0.000000
vt 0.000000 0.000000
vt 0.666667 0.984333
vt 0.000000 0.000000
vt 0.000000 0.000000
vt 0.000000 0.000000
vt 0.000000 0.000000
vt 0.000000 0.000000
vt 0.666667 0.817666
vt 0.000000 0.000000
vt 0.000000 0.000000
vt 0.000000 0.000000
vt 0.000000 0.000000
vt 0.500000 0.984333
vt 0.000000 0.000000
vt 0.000000 0.000000
vt 0.500000 0.817666
vt 0.500000 0.817666
vt 0.000000 0.000000
vt 0.000000 0.000000
vt 0.000000 0.000000
vt 0.000000 0.000000
vt 1.000000 0.817666
vt 0.833333 0.817666
vt 0.500000 0.984333
vt 0.666667 0.984333
vt 0.833333 0.984333
vt 1.000000 0.984333
vt 0.666667 0.817666
vt 0.500000 0.817666
vt 1.000000 0.984333
vt 0.833333 0.817666
vt 1.000000 0.817666
vt 0.833333 0.817666
vt 0.833333 0.984333
vt 0.833333 0.817666
vt 0.666667 0.984333
vt 1.000000 0.984333
vt 0.500000 0.984333
vt 0.833333 0.817666
vt 0.666667 0.817666
vt 0.666667 0.817666
vt 0.666667 0.984333
vt 0.833333 0.984333
vt 0.666667 0.984333
vt 0.666667 0.817666
vt 0.666667 0.984333
vt 0.833333 0.984333
vt 0.250000 0.490000
vt 0.457846 0.130000
vt 0.457846 0.370000
vt 0.833333 0.984333
vt 0.666667 0.984333
vt 0.833333 1.000000
vt 0.666667 1.000000
vt 0.957846 0.370000
vt 0.666667 0.817666
vt 0.833333 0.817666
vt 0.666667 0.817666
vt 0.666667 0.817666
vt 0.666667 0.500000
vt 0.833333 0.817666
vt 0.833333 0.500000
vt 0.833333 0.984333
vt 0.666667 0.984333
vt 0.833333 0.984333
vt 0.000000 0.000000
vt 0.000000 0.000000
vt 0.000000 0.000000
vt 0.000000 0.000000
vt 0.833333 0.984333
vt 0.000000 0.000000
vt 0.000000 0.000000
vt 0.000000 0.000000
vt 0.000000 0.000000
vt 0.000000 0.000000
vt 0.000000 0.000000
vt 0.666667 0.984333
vt 0.000000 0.000000
vt 0.000000 0.000000
vt 0.000000 0.000000
vt 0.833333 0.817666
vt 0.000000 0.000000
vt 0.000000 0.000000
vt 0.000000 0.000000
vt 0.000000 0.000000
vt 0.000000 0.000000
vt 0.666667 0.817666
vt 0.000000 0.000000
vt 0.000000 0.000000
vt 0.833333 0.984333
vt 0.833333 0.817666
vt 0.666667 0.984333
vt 0.666667 0.817666
vt 0.833333 0.817666
vt 0.833333 0.817666
vt 0.833333 0.984333
vt 0.833333 0.984333
vt 0.666667 0.984333
vt 0.500000 0.984333
vt 1.000000 0.817666
vt 0.833333 0.817666
vt 0.833333 0.817666
vt 0.666667 0.817666
vt 0.666667 0.817666
vt 0.666667 0.984333
vt 0.666667 0.984333
vt 0.666667 0.817666
vt 0.666667 0.984333
vt 0.833333 0.984333
vt 0.457846 0.130000
vt 0.457846 0.370000
vt 0.500000 1.000000
vt 0.957846 0.130000
vt 0.250000 0.010000
vt 0.957846 0.130000
vn 0.5000 0.0000 -0.8660
vn 1.0000 0.0000 0.0000
vn 0.5000 0.0000 0.8660
vn 0.0000 -1.0000 0.0000
vn 0.0000 1.0000 0.0000
vn 0.0000 0.0000 1.0000
vn 0.2684 0.0000 -0.9633
vn 0.0838 0.0000 -0.9965
vn 0.2684 0.0000 0.9633
vn 0.2984 0.0000 -0.9544
vn -0.1174 -0.9931 0.0000
vn 0.2417 0.9704 0.0000
vn 0.0838 -0.0000 0.9965
vn -0.1810 -0.9835 0.0000
vn 0.2984 0.0000 0.9544
vn 0.5567 0.8307 0.0000
vn 0.0602 0.0000 0.9982
vn 0.1758 0.9844 0.0000
vn -0.0845 -0.9964 0.0000
vn 0.0602 0.0000 -0.9982
vn -0.5000 0.0000 -0.8660
vn -1.0000 0.0000 0.0000
vn -0.5000 0.0000 0.8660
vn -0.2684 0.0000 -0.9633
vn -0.0838 0.0000 -0.9965
vn -0.2684 0.0000 0.9633
vn -0.2984 0.0000 -0.9544
vn 0.1174 -0.9931 0.0000
vn -0.2417 0.9704 -0.0000
vn -0.0838 -0.0000 0.9965
vn 0.1810 -0.9835 0.0000
vn -0.2984 0.0000 0.9544
vn -0.5567 0.8307 0.0000
vn -0.0602 0.0000 0.9982
vn -0.1758 0.9844 -0.0000
vn 0.0845 -0.9964 -0.0000
vn -0.0602 0.0000 -0.9982
usemtl None
s off
f 43/1/1 5/2/1 51/3/1
f 2/4/2 7/5/2 5/2/2
f 4/6/3 56/7/3 7/5/3
f 1/8/4 48/9/4 42/10/4
f 29/11/4 26/12/4 30/13/4
f 8/14/3 48/15/3 3/16/3
f 6/17/2 3/16/2 1/18/2
f 31/19/5 27/20/5 32/21/5
f 50/22/1 1/18/1 42/23/1
f 30/13/4 91/24/4 102/25/4
f 17/26/6 64/27/6 11/28/6
f 69/29/6 9/30/6 58/31/6
f 51/3/6 18/32/6 83/33/6
f 16/34/6 11/28/6 10/35/6
f 6/17/6 84/36/6 19/37/6
f 85/38/6 32/39/6 101/40/6
f 13/41/6 12/42/6 9/30/6
f 5/2/6 20/43/6 18/32/6
f 14/44/6 100/45/6 29/46/6
f 66/47/6 10/35/6 60/48/6
f 8/14/6 19/37/6 21/49/6
f 24/50/6 31/51/6 32/39/6
f 15/52/6 62/53/6 12/42/6
f 7/5/6 81/54/6 20/43/6
f 22/55/6 29/46/6 30/56/6
f 57/57/6 21/49/6 82/58/6
f 23/59/6 98/60/6 31/51/6
f 86/61/5 30/56/5 102/62/5
f 19/37/6 58/63/6 9/64/6
f 20/43/6 60/65/6 10/66/6
f 83/33/6 11/67/6 64/68/6
f 21/49/6 9/64/6 12/69/6
f 18/32/6 10/66/6 11/67/6
f 82/58/6 12/69/6 62/70/6
f 92/71/7 28/72/7 93/73/7
f 39/74/8 35/75/8 36/76/8
f 25/77/9 91/24/9 26/12/9
f 32/21/5 92/71/5 101/78/5
f 31/19/5 90/79/5 25/77/5
f 29/11/4 93/73/4 28/72/4
f 36/76/10 35/75/10 37/80/10
f 39/74/11 34/81/11 40/82/11
f 41/83/12 35/75/12 38/84/12
f 40/82/13 33/85/13 41/83/13
f 34/81/14 36/76/14 37/86/14
f 33/85/15 34/81/15 37/87/15
f 35/75/16 33/85/16 37/88/16
f 26/12/17 41/83/17 25/77/17
f 25/77/18 38/84/18 27/20/18
f 28/72/19 40/82/19 26/12/19
f 28/72/20 38/84/20 39/74/20
f 43/89/5 4/90/5 2/91/5
f 52/92/21 43/1/21 51/3/21
f 54/93/22 45/94/22 52/92/22
f 56/7/23 47/95/23 54/93/23
f 48/9/4 44/96/4 42/10/4
f 95/97/4 99/98/4 103/99/4
f 48/15/23 55/100/23 46/101/23
f 46/101/22 53/102/22 44/103/22
f 96/104/5 104/105/5 105/106/5
f 44/103/21 50/22/21 42/23/21
f 91/24/4 103/99/4 102/25/4
f 75/107/6 64/27/6 71/108/6
f 69/29/6 59/109/6 68/110/6
f 51/3/6 77/111/6 52/92/6
f 74/112/6 63/113/6 75/107/6
f 53/102/6 84/36/6 50/22/6
f 85/38/6 105/114/6 89/115/6
f 68/110/6 65/116/6 73/117/6
f 52/92/6 79/118/6 54/93/6
f 70/119/5 100/45/5 76/120/5
f 66/47/6 61/121/6 74/112/6
f 55/100/6 78/122/6 53/102/6
f 89/115/6 104/123/6 88/124/6
f 73/117/6 62/53/6 72/125/6
f 54/93/6 81/54/6 56/7/6
f 87/126/6 99/127/6 70/119/6
f 57/57/6 80/128/6 55/100/6
f 88/124/6 98/60/6 67/129/6
f 86/61/6 103/130/6 87/126/6
f 78/122/6 58/63/6 84/36/6
f 79/118/6 60/65/6 81/54/6
f 83/33/6 63/131/6 77/111/6
f 80/128/6 59/132/6 78/122/6
f 77/111/6 61/133/6 79/118/6
f 82/58/6 65/134/6 80/128/6
f 97/135/24 92/71/24 93/73/24
f 112/136/25 108/137/25 111/138/25
f 91/24/26 94/139/26 95/97/26
f 92/71/5 105/106/5 101/78/5
f 104/105/5 90/79/5 98/140/5
f 99/98/4 93/73/4 100/141/4
f 109/142/27 110/143/27 108/137/27
f 107/144/28 112/136/28 113/145/28
f 108/137/29 114/146/29 111/138/29
f 106/147/30 113/145/30 114/146/30
f 107/144/31 110/148/31 109/142/31
f 106/147/32 110/149/32 107/144/32
f 108/137/33 110/150/33 106/147/33
f 114/146/34 95/97/34 94/139/34
f 111/138/35 94/139/35 96/104/35
f 113/145/36 97/135/36 95/97/36
f 97/135/37 111/138/37 96/104/37
f 47/151/5 43/89/5 45/152/5
f 43/1/1 2/4/1 5/2/1
f 2/4/2 4/6/2 7/5/2
f 4/6/3 49/153/3 56/7/3
f 1/8/4 3/154/4 48/9/4
f 29/11/4 28/72/4 26/12/4
f 8/14/3 57/57/3 48/15/3
f 6/17/2 8/14/2 3/16/2
f 31/19/5 25/77/5 27/20/5
f 50/22/1 6/17/1 1/18/1
f 30/13/4 26/12/4 91/24/4
f 17/26/6 71/108/6 64/27/6
f 69/29/6 13/41/6 9/30/6
f 51/3/6 5/2/6 18/32/6
f 16/34/6 17/26/6 11/28/6
f 6/17/6 50/22/6 84/36/6
f 85/38/6 24/50/6 32/39/6
f 13/41/6 15/52/6 12/42/6
f 5/2/6 7/5/6 20/43/6
f 14/44/5 76/120/5 100/45/5
f 66/47/6 16/34/6 10/35/6
f 8/14/6 6/17/6 19/37/6
f 24/50/6 23/59/6 31/51/6
f 15/52/6 72/125/6 62/53/6
f 7/5/6 56/7/6 81/54/6
f 22/55/6 14/44/6 29/46/6
f 57/57/6 8/14/6 21/49/6
f 23/59/6 67/129/6 98/60/6
f 86/61/6 22/55/6 30/56/6
f 19/37/6 84/36/6 58/63/6
f 20/43/6 81/54/6 60/65/6
f 83/33/6 18/32/6 11/67/6
f 21/49/6 19/37/6 9/64/6
f 18/32/6 20/43/6 10/66/6
f 82/58/6 21/49/6 12/69/6
f 92/71/7 27/20/7 28/72/7
f 39/74/8 38/84/8 35/75/8
f 25/77/9 90/79/9 91/24/9
f 32/21/5 27/20/5 92/71/5
f 31/19/5 98/140/5 90/79/5
f 29/11/4 100/141/4 93/73/4
f 39/74/11 36/76/11 34/81/11
f 41/83/12 33/85/12 35/75/12
f 40/82/13 34/81/13 33/85/13
f 26/12/17 40/82/17 41/83/17
f 25/77/18 41/83/18 38/84/18
f 28/72/19 39/74/19 40/82/19
f 28/72/20 27/20/20 38/84/20
f 43/89/5 49/155/5 4/90/5
f 52/92/21 45/94/21 43/1/21
f 54/93/22 47/95/22 45/94/22
f 56/7/23 49/153/23 47/95/23
f 48/9/4 46/156/4 44/96/4
f 95/97/4 97/135/4 99/98/4
f 48/15/23 57/57/23 55/100/23
f 46/101/22 55/100/22 53/102/22
f 96/104/5 94/139/5 104/105/5
f 44/103/21 53/102/21 50/22/21
f 91/24/4 95/97/4 103/99/4
f 75/107/6 63/113/6 64/27/6
f 69/29/6 58/31/6 59/109/6
f 51/3/6 83/33/6 77/111/6
f 74/112/6 61/121/6 63/113/6
f 53/102/6 78/122/6 84/36/6
f 85/38/6 101/40/6 105/114/6
f 68/110/6 59/109/6 65/116/6
f 52/92/6 77/111/6 79/118/6
f 70/119/6 99/127/6 100/45/6
f 66/47/6 60/48/6 61/121/6
f 55/100/6 80/128/6 78/122/6
f 89/115/6 105/114/6 104/123/6
f 73/117/6 65/116/6 62/53/6
f 54/93/6 79/118/6 81/54/6
f 87/126/6 103/130/6 99/127/6
f 57/57/6 82/58/6 80/128/6
f 88/124/6 104/123/6 98/60/6
f 86/61/5 102/62/5 103/130/5
f 78/122/6 59/132/6 58/63/6
f 79/118/6 61/133/6 60/65/6
f 83/33/6 64/68/6 63/131/6
f 80/128/6 65/134/6 59/132/6
f 77/111/6 63/131/6 61/133/6
f 82/58/6 62/70/6 65/134/6
f 97/135/24 96/104/24 92/71/24
f 112/136/25 109/142/25 108/137/25
f 91/24/26 90/79/26 94/139/26
f 92/71/5 96/104/5 105/106/5
f 104/105/5 94/139/5 90/79/5
f 99/98/4 97/135/4 93/73/4
f 107/144/28 109/142/28 112/136/28
f 108/137/29 106/147/29 114/146/29
f 106/147/30 107/144/30 113/145/30
f 114/146/34 113/145/34 95/97/34
f 111/138/35 114/146/35 94/139/35
f 113/145/36 112/136/36 97/135/36
f 97/135/37 112/136/37 111/138/37
f 47/151/5 49/155/5 43/89/5
