# Blender v2.92.0 OBJ File: 'shield.blend'
# www.blender.org
mtllib shield.mtl
o Circle
v 0.031435 -0.042561 -1.481762
v -0.542590 -0.042561 -1.367581
v -1.029225 -0.042561 -1.042422
v -1.354384 -0.042561 -0.555787
v -1.468565 -0.042561 0.018238
v -1.354384 -0.042561 0.592263
v -1.029225 -0.042561 1.078898
v -0.542590 -0.042561 1.404058
v 0.031435 -0.042561 1.518238
v 0.605460 -0.042561 1.404058
v 1.092095 -0.042561 1.078899
v 1.417255 -0.042561 -0.555787
v 1.092095 -0.042561 -1.042422
v 0.605460 -0.042561 -1.367581
v 0.031435 -0.042561 -1.481762
v -0.542590 -0.042561 -1.367581
v -1.029225 -0.042561 -1.042422
v -1.354384 -0.042561 -0.555787
v -1.468565 -0.042561 0.018238
v -1.354384 -0.042561 0.592263
v -1.029225 -0.042561 1.078898
v -0.542590 -0.042561 1.404058
v 0.031435 -0.042561 1.518238
v 0.605460 -0.042561 1.404058
v 1.092095 -0.042561 1.078899
v 1.417255 -0.042561 0.592264
v 1.531435 -0.042561 0.018238
v 1.417255 -0.042561 -0.555787
v 1.092095 -0.042561 -1.042422
v 0.605460 -0.042561 -1.367581
v 0.031435 0.121050 -1.409814
v -0.515057 0.121050 -1.301110
v -0.978350 0.121050 -0.991547
v -1.287913 0.121050 -0.528254
v -1.396617 0.121050 0.018238
v -1.287913 0.121050 0.564730
v -0.978350 0.121050 1.028024
v -0.515057 0.121050 1.337587
v 0.031435 0.121050 1.446291
v 0.577927 0.121050 1.337587
v 1.041221 0.121050 1.028024
v 1.352178 0.120482 0.576760
v 1.459488 0.121050 0.018238
v 1.350784 0.121050 -0.528254
v 1.041221 0.121050 -0.991548
v 0.577927 0.121050 -1.301111
v 0.031435 0.121050 -1.409814
v -0.515057 0.121050 -1.301110
v -0.978350 0.121050 -0.991547
v -1.287913 0.121050 -0.528254
v -1.396617 0.121050 0.018238
v -1.287913 0.121050 0.564730
v -0.978350 0.121050 1.028024
v -0.515057 0.121050 1.337587
v 0.031435 0.121050 1.446291
v 0.577927 0.121050 1.337587
v 1.041221 0.121050 1.028024
v 1.350784 0.121050 0.564730
v 1.459488 0.121050 0.018238
v 1.350784 0.121050 -0.528254
v 1.041221 0.121050 -0.991548
v 0.577927 0.121050 -1.301111
v 0.031435 0.307050 -1.049843
v -0.377302 0.307050 -0.968540
v -0.723812 0.307050 -0.737009
v -0.955343 0.307050 -0.390499
v -1.036645 0.307050 0.018238
v -0.955343 0.307050 0.426975
v -0.723812 0.307050 0.773485
v -0.377302 0.307050 1.005016
v 0.031435 0.307050 1.086319
v 0.793667 0.307048 0.772007
v 1.018213 0.307050 0.426975
v 1.099516 0.307050 0.018238
v 1.018213 0.307050 -0.390499
v 0.786682 0.307050 -0.737009
v 0.440172 0.307050 -0.968540
v 0.031435 0.394388 -0.384704
v -0.122764 0.394388 -0.354032
v -0.253488 0.394388 -0.266685
v -0.340835 0.394388 -0.135961
v -0.371507 0.394388 0.018238
v -0.340835 0.394388 0.172438
v -0.253488 0.394388 0.303161
v -0.122764 0.394388 0.390508
v 0.031435 0.394388 0.421180
v 0.185635 0.394388 0.390508
v 0.316358 0.394388 0.303161
v 0.403705 0.394388 0.172438
v 0.430370 0.390752 0.018816
v 0.403705 0.394388 -0.135961
v 0.316358 0.394388 -0.266685
v 0.185634 0.394388 -0.354032
v 0.434377 0.394388 0.018238
v 0.403705 0.394388 -0.135961
v 0.031435 -0.042561 -1.481762
v -0.542590 -0.042561 -1.367581
v -1.029225 -0.042561 -1.042422
v -1.354384 -0.042561 -0.555787
v -1.468565 -0.042561 0.018238
v -1.354384 -0.042561 0.592263
v -1.029225 -0.042561 1.078898
v -0.542590 -0.042561 1.404058
v 0.031435 -0.042561 1.518238
v 0.605460 -0.042561 1.404058
v 1.092095 -0.042561 1.078899
v 1.417255 -0.042561 0.592264
v 1.531435 -0.042561 0.018238
v 1.417255 -0.042561 -0.555787
v 1.092095 -0.042561 -1.042422
v 0.605460 -0.042561 -1.367581
v 0.031435 -0.042561 0.018238
v -1.354384 -0.042561 -0.555787
v -1.354384 -0.042561 -0.555787
v -1.354384 -0.042561 -0.555787
v -1.029225 -0.042561 -1.042422
v -0.043565 -0.117561 0.843238
v -0.043565 0.032439 0.843238
v -0.043565 -0.117561 0.693238
v -0.043565 0.032439 0.693238
v 0.106435 -0.117561 0.843238
v 0.106435 0.032439 0.843238
v 0.106435 -0.117561 0.693238
v 0.106435 0.032439 0.693238
v -0.043565 -0.117561 -0.656762
v -0.043565 0.032439 -0.656762
v -0.043565 -0.117561 -0.806762
v -0.043565 0.032439 -0.806762
v 0.106435 -0.117561 -0.656762
v 0.106435 0.032439 -0.656762
v 0.106435 -0.117561 -0.806762
v 0.106435 0.032439 -0.806762
v -0.043565 -0.245061 -0.796714
v -0.043565 -0.170061 -0.666810
v 0.106435 -0.245061 -0.796714
v 0.106435 -0.170061 -0.666810
v -0.043565 -0.350455 -0.724262
v -0.043565 -0.220551 -0.649262
v 0.106435 -0.350455 -0.724262
v 0.106435 -0.220551 -0.649262
v -0.043565 -0.405503 -0.608820
v -0.043565 -0.255503 -0.608819
v 0.106435 -0.405503 -0.608820
v 0.106435 -0.255503 -0.608819
v -0.043565 -0.245061 0.833190
v -0.043565 -0.170061 0.703286
v 0.106435 -0.245061 0.833190
v 0.106435 -0.170061 0.703286
v -0.043565 -0.350455 0.760738
v -0.043565 -0.220551 0.685738
v 0.106435 -0.350455 0.760738
v 0.106435 -0.220551 0.685738
v -0.043565 -0.405503 0.645296
v -0.043565 -0.255503 0.645296
v 0.106435 -0.405503 0.645296
v 0.106435 -0.255503 0.645296
v -0.043565 -0.405503 -0.608820
v -0.043565 -0.255503 -0.608819
v 0.106435 -0.405503 -0.608820
v 0.106435 -0.255503 -0.608819
v -0.043565 -0.405504 0.645296
v -0.043565 -0.255504 0.645296
v 0.106435 -0.405504 0.645296
v 0.106435 -0.255504 0.645296
vt 0.000000 0.000000
vt 0.000000 0.000000
vt 0.000000 0.000000
vt 0.000000 0.000000
vt 0.000000 0.000000
vt 0.000000 0.000000
vt 0.000000 0.000000
vt 0.000000 0.000000
vt 0.000000 0.000000
vt 0.000000 0.000000
vt 0.000000 0.000000
vt 0.000000 0.000000
vt 0.000000 0.000000
vt 0.000000 0.000000
vt 0.000000 0.000000
vt 0.000000 0.000000
vt 0.000000 0.000000
vt 0.000000 0.000000
vt 0.000000 0.000000
vt 0.000000 0.000000
vt 0.000000 0.000000
vt 0.000000 0.000000
vt 0.000000 0.000000
vt 0.000000 0.000000
vt 0.000000 0.000000
vt 0.000000 0.000000
vt 0.000000 0.000000
vt 0.000000 0.000000
vt 0.000000 0.000000
vt 0.000000 0.000000
vt 0.000000 0.000000
vt 0.000000 0.000000
vt 0.000000 0.000000
vt 0.000000 0.000000
vt 0.000000 0.000000
vt 0.000000 0.000000
vt 0.000000 0.000000
vt 0.000000 0.000000
vt 0.000000 0.000000
vt 0.000000 0.000000
vt 0.000000 0.000000
vt 0.000000 0.000000
vt 0.000000 0.000000
vt 0.000000 0.000000
vt 0.000000 0.000000
vt 0.000000 0.000000
vt 0.000000 0.000000
vt 0.000000 0.000000
vt 0.000000 0.000000
vt 0.000000 0.000000
vt 0.000000 0.000000
vt 0.000000 0.000000
vt 0.000000 0.000000
vt 0.000000 0.000000
vt 0.000000 0.000000
vt 0.000000 0.000000
vt 0.000000 0.000000
vt 0.000000 0.000000
vt 0.000000 0.000000
vt 0.000000 0.000000
vt 0.000000 0.000000
vt 0.000000 0.000000
vt 0.000000 0.000000
vt 0.000000 0.000000
vt 0.000000 0.000000
vt 0.000000 0.000000
vt 0.000000 0.000000
vt 0.000000 0.000000
vt 0.000000 0.000000
vt 0.000000 0.000000
vt 0.000000 0.000000
vt 0.000000 0.000000
vt 0.000000 0.000000
vt 0.000000 0.000000
vt 0.000000 0.000000
vt 0.000000 0.000000
vt 0.000000 0.000000
vt 0.000000 0.000000
vt 0.000000 0.000000
vt 0.000000 0.000000
vt 0.000000 0.000000
vt 0.000000 0.000000
vt 0.000000 0.000000
vt 0.000000 0.000000
vt 0.000000 0.000000
vt 0.000000 0.000000
vt 0.000000 0.000000
vt 0.000000 0.000000
vt 0.000000 0.000000
vt 0.000000 0.000000
vt 0.000000 0.000000
vt 0.000000 0.000000
vt 0.000000 0.000000
vt 0.000000 0.000000
vt 0.000000 0.000000
vt 0.000000 0.000000
vt 0.000000 0.000000
vt 0.000000 0.000000
vt 0.000000 0.000000
vt 0.000000 0.000000
vt 0.000000 0.000000
vt 0.000000 0.000000
vt 0.000000 0.000000
vt 0.000000 0.000000
vt 0.000000 0.000000
vt 0.000000 0.000000
vt 0.000000 0.000000
vt 0.000000 0.000000
vt 0.000000 0.000000
vt 0.000000 0.000000
vt 0.000000 0.000000
vt 0.000000 0.000000
vt 0.000000 0.000000
vt 0.000000 0.000000
vt 0.625000 0.000000
vt 0.375000 0.250000
vt 0.375000 0.000000
vt 0.625000 0.250000
vt 0.375000 0.500000
vt 0.625000 0.500000
vt 0.375000 0.750000
vt 0.625000 0.750000
vt 0.375000 1.000000
vt 0.375000 0.250000
vt 0.875000 0.500000
vt 0.625000 0.000000
vt 0.375000 0.250000
vt 0.375000 0.000000
vt 0.625000 0.250000
vt 0.375000 0.500000
vt 0.625000 0.500000
vt 0.375000 0.750000
vt 0.625000 0.750000
vt 0.375000 1.000000
vt 0.375000 0.750000
vt 0.875000 0.500000
vt 0.375000 0.500000
vt 0.375000 0.750000
vt 0.375000 0.500000
vt 0.375000 0.250000
vt 0.375000 0.000000
vt 0.375000 1.000000
vt 0.375000 0.750000
vt 0.375000 0.000000
vt 0.375000 1.000000
vt 0.375000 0.250000
vt 0.375000 0.250000
vt 0.375000 0.500000
vt 0.375000 0.250000
vt 0.375000 0.500000
vt 0.375000 0.000000
vt 0.375000 0.000000
vt 0.375000 0.250000
vt 0.375000 0.000000
vt 0.375000 0.500000
vt 0.375000 0.750000
vt 0.375000 1.000000
vt 0.375000 0.750000
vt 0.375000 0.750000
vt 0.375000 1.000000
vt 0.375000 0.500000
vt 0.375000 0.500000
vt 0.125000 0.750000
vt 0.125000 0.500000
vt 0.375000 0.250000
vt 0.375000 0.000000
vt 0.375000 0.750000
vt 0.375000 0.500000
vt 0.375000 0.000000
vt 0.375000 1.000000
vt 0.125000 0.750000
vt 0.125000 0.500000
vt 0.375000 0.000000
vt 0.375000 0.750000
vt 0.375000 0.250000
vt 0.000000 0.000000
vt 0.000000 0.000000
vt 0.625000 1.000000
vt 0.875000 0.750000
vt 0.625000 1.000000
vt 0.875000 0.750000
vt 0.375000 1.000000
vt 0.375000 1.000000
vt 0.375000 1.000000
vn 0.0000 0.0000 1.0000
vn 0.7635 -0.3960 -0.5101
vn -0.7635 -0.3960 0.5101
vn 0.5101 -0.3960 -0.7635
vn -0.5101 -0.3960 0.7635
vn 0.1791 -0.3960 -0.9006
vn 0.1791 -0.3960 0.9006
vn -0.1791 -0.3960 0.9006
vn -0.1791 -0.3960 -0.9006
vn 0.5101 -0.3960 0.7635
vn -0.5101 -0.3960 -0.7635
vn 0.7635 -0.3960 0.5101
vn -0.7760 -0.3590 -0.5185
vn 0.9006 -0.3960 0.1791
vn -0.9006 -0.3960 -0.1791
vn 0.9006 -0.3960 -0.1791
vn -0.9006 -0.3960 0.1791
vn -0.0601 -0.9974 -0.0402
vn 0.0909 -0.8847 0.4571
vn -0.0909 -0.8847 0.4571
vn 0.2590 -0.8847 0.3876
vn -0.1483 -0.9213 -0.3595
vn 0.3875 -0.8847 0.2590
vn -0.3899 -0.8852 -0.2538
vn 0.4571 -0.8847 0.0909
vn -0.4571 -0.8847 -0.0909
vn 0.4571 -0.8847 -0.0909
vn -0.4571 -0.8847 0.0909
vn 0.3876 -0.8847 -0.2590
vn -0.3876 -0.8847 0.2590
vn 0.2590 -0.8847 -0.3876
vn -0.2590 -0.8847 0.3876
vn 0.0909 -0.8847 -0.4571
vn 0.1103 -0.9912 -0.0737
vn -0.1103 -0.9912 0.0737
vn 0.0737 -0.9912 -0.1103
vn -0.0737 -0.9912 0.1103
vn 0.0259 -0.9912 -0.1301
vn 0.0259 -0.9912 0.1301
vn -0.0259 -0.9912 0.1301
vn 0.0737 -0.9912 0.1103
vn 0.1103 -0.9912 0.0737
vn -0.1103 -0.9912 -0.0737
vn 0.1301 -0.9912 0.0259
vn -0.1241 -0.9923 0.0019
vn 0.1301 -0.9912 -0.0259
vn -0.1301 -0.9912 0.0259
vn 0.6558 -0.7435 -0.1305
vn 0.0000 1.0000 0.0000
vn -1.0000 0.0000 0.0000
vn 0.0000 0.0000 -1.0000
vn 1.0000 0.0000 0.0000
vn 0.0000 -0.1880 -0.9822
vn 0.0000 -0.1880 0.9822
vn 0.0000 -0.0786 -0.9969
vn 0.0000 0.7566 0.6539
vn 0.0000 0.3283 0.9446
vn 0.0000 -0.5665 -0.8241
vn 0.0000 -0.9026 -0.4304
vn 0.0000 -0.0786 0.9969
vn 0.0000 -0.9026 0.4304
vn 0.0000 -0.5665 0.8241
vn 0.0000 0.3283 -0.9446
vn 0.0000 0.7566 -0.6539
vn 0.0000 -1.0000 -0.0000
vn -0.7560 -0.3969 -0.5205
vn -0.9086 -0.3793 -0.1750
vn -0.1484 -0.9885 -0.0295
vn -0.0734 -0.9912 -0.1099
vn -0.2605 -0.8833 -0.3898
vn -0.0909 -0.8847 -0.4571
vn -0.0259 -0.9912 -0.1301
vn -0.0563 -0.9890 -0.1366
vn 0.3876 -0.8847 0.2590
vn -0.3919 -0.8820 -0.2618
vn 0.2590 -0.8847 -0.3875
vn -0.1106 -0.9912 -0.0720
vn -0.1301 -0.9912 -0.0259
vn -0.1241 -0.9923 -0.0019
vn -0.6558 0.7435 0.1305
vn -0.0033 -1.0000 -0.0049
vn -0.0015 -1.0000 -0.0075
vn 0.0022 -0.9999 -0.0112
vn 0.0116 -0.9998 -0.0174
vn 0.0473 -0.9984 -0.0316
vn -0.0042 -1.0000 -0.0028
vn -0.0045 -1.0000 0.0009
vn -0.0045 -1.0000 -0.0009
vn -0.0033 -1.0000 0.0049
vn -0.0042 -1.0000 0.0028
vn 0.0022 -0.9999 0.0113
vn -0.0015 -1.0000 0.0075
vn 0.0478 -0.9983 0.0319
vn 0.0117 -0.9998 0.0175
usemtl None
s off
f 8/1/1 21/2/1 22/3/1
f 14/4/1 29/5/1 30/6/1
f 9/7/1 22/3/1 23/8/1
f 2/9/1 15/10/1 16/11/1
f 1/12/1 30/6/1 15/10/1
f 10/13/1 23/8/1 24/14/1
f 3/15/1 16/11/1 17/16/1
f 11/17/1 24/14/1 25/18/1
f 4/19/1 17/16/1 18/20/1
f 5/21/1 18/20/1 19/22/1
f 6/23/1 19/22/1 20/24/1
f 7/25/1 20/24/1 21/2/1
f 13/26/1 28/27/1 29/5/1
f 20/24/2 37/28/2 21/2/2
f 28/27/3 45/29/3 29/5/3
f 21/2/4 38/30/4 22/3/4
f 29/5/5 46/31/5 30/6/5
f 22/3/6 39/32/6 23/8/6
f 16/11/7 31/33/7 32/34/7
f 30/6/8 31/33/8 15/10/8
f 24/14/9 39/32/9 40/35/9
f 16/11/10 33/36/10 17/16/10
f 24/14/11 41/37/11 25/18/11
f 18/20/12 33/36/12 34/38/12
f 25/18/13 42/39/13 26/40/13
f 18/20/14 35/41/14 19/22/14
f 26/40/15 43/42/15 27/43/15
f 20/24/16 35/41/16 36/44/16
f 27/43/17 44/45/17 28/27/17
f 42/39/18 57/46/18 58/47/18
f 35/41/1 50/48/1 51/49/1
f 43/42/1 58/47/1 59/50/1
f 36/44/1 51/49/1 52/51/1
f 44/45/1 59/50/1 60/52/1
f 37/28/1 52/51/1 53/53/1
f 45/29/1 60/52/1 61/54/1
f 38/30/1 53/53/1 54/55/1
f 46/31/1 61/54/1 62/56/1
f 39/32/1 54/55/1 55/57/1
f 32/34/1 47/58/1 48/59/1
f 31/33/1 62/56/1 47/58/1
f 40/35/1 55/57/1 56/60/1
f 33/36/1 48/59/1 49/61/1
f 41/37/1 56/60/1 57/46/1
f 34/38/1 49/61/1 50/48/1
f 47/58/19 64/62/19 48/59/19
f 62/56/20 63/63/20 47/58/20
f 49/61/21 64/62/21 65/64/21
f 72/65/22 56/60/22 71/66/22
f 49/61/23 66/67/23 50/48/23
f 58/47/24 72/65/24 73/68/24
f 50/48/25 67/69/25 51/49/25
f 59/50/26 73/68/26 74/70/26
f 51/49/27 68/71/27 52/51/27
f 59/50/28 75/72/28 60/52/28
f 52/51/29 69/73/29 53/53/29
f 60/52/30 76/74/30 61/54/30
f 53/53/31 70/75/31 54/55/31
f 62/56/32 76/74/32 77/76/32
f 54/55/33 71/66/33 55/57/33
f 68/71/34 84/77/34 69/73/34
f 76/74/35 91/78/35 92/79/35
f 69/73/36 85/80/36 70/75/36
f 76/74/37 93/81/37 77/76/37
f 70/75/38 86/82/38 71/66/38
f 64/62/39 78/83/39 79/84/39
f 63/63/40 93/81/40 78/83/40
f 64/62/41 80/85/41 65/64/41
f 65/64/42 81/86/42 66/67/42
f 73/68/43 88/87/43 89/88/43
f 67/69/44 81/86/44 82/89/44
f 74/70/45 89/88/45 90/90/45
f 67/69/46 83/91/46 68/71/46
f 74/70/47 91/78/47 75/72/47
f 91/78/1 94/92/1 95/93/1
f 91/78/48 94/92/48 90/90/48
f 20/24/1 102/94/1 101/95/1
f 28/27/1 110/96/1 109/97/1
f 21/2/1 103/98/1 102/94/1
f 29/5/1 111/99/1 110/96/1
f 22/3/1 104/100/1 103/98/1
f 15/10/1 97/101/1 96/102/1
f 30/6/1 96/102/1 111/99/1
f 23/8/1 105/103/1 104/100/1
f 16/11/1 98/104/1 97/101/1
f 24/14/1 106/105/1 105/103/1
f 17/16/1 99/106/1 98/104/1
f 25/18/1 107/107/1 106/105/1
f 18/20/1 100/108/1 99/106/1
f 26/40/1 108/109/1 107/107/1
f 19/22/1 101/95/1 100/108/1
f 27/43/1 109/97/1 108/109/1
f 108/109/49 109/97/49 112/110/49
f 101/95/49 102/94/49 112/110/49
f 109/97/49 110/96/49 112/110/49
f 102/94/49 103/98/49 112/110/49
f 110/96/49 111/99/49 112/110/49
f 103/98/49 104/100/49 112/110/49
f 96/102/49 97/101/49 112/110/49
f 111/99/49 96/102/49 112/110/49
f 104/100/49 105/103/49 112/110/49
f 97/101/49 98/104/49 112/110/49
f 105/103/49 106/105/49 112/110/49
f 98/104/49 99/106/49 112/110/49
f 106/105/49 107/107/49 112/110/49
f 99/106/49 100/108/49 112/110/49
f 107/107/49 108/109/49 112/110/49
f 100/108/49 101/95/49 112/110/49
f 3/15/1 115/111/1 116/112/1
f 115/111/1 114/113/1 113/114/1
f 118/115/50 119/116/50 117/117/50
f 120/118/51 123/119/51 119/116/51
f 124/120/52 121/121/52 123/119/52
f 122/122/1 117/123/1 121/121/1
f 123/119/53 146/124/53 119/116/53
f 120/125/49 122/122/49 124/120/49
f 126/126/50 127/127/50 125/128/50
f 128/129/51 131/130/51 127/127/51
f 132/131/52 129/132/52 131/130/52
f 130/133/1 125/134/1 129/132/1
f 125/134/54 136/135/54 129/132/54
f 128/136/49 130/133/49 132/131/49
f 135/137/52 140/138/52 139/139/52
f 131/130/55 133/140/55 127/127/55
f 127/127/50 134/141/50 125/128/50
f 131/130/52 136/135/52 135/137/52
f 138/142/56 144/143/56 140/138/56
f 133/140/50 138/144/50 134/141/50
f 134/145/57 140/138/57 136/135/57
f 135/137/58 137/146/58 133/140/58
f 141/147/1 159/148/1 157/149/1
f 139/139/59 141/147/59 137/146/59
f 139/139/52 144/143/52 143/150/52
f 137/146/50 142/151/50 138/144/50
f 145/152/50 150/153/50 149/154/50
f 117/117/50 146/124/50 145/152/50
f 121/121/52 148/155/52 123/119/52
f 117/123/60 147/156/60 121/121/60
f 149/157/61 155/158/61 151/159/61
f 145/160/62 151/159/62 147/156/62
f 148/155/63 150/153/63 146/124/63
f 147/156/52 152/161/52 148/155/52
f 156/162/51 153/163/51 154/164/51
f 152/161/64 154/165/64 150/153/64
f 151/159/52 156/162/52 152/161/52
f 149/154/50 154/165/50 153/166/50
f 160/167/52 163/168/52 159/148/52
f 143/150/1 160/167/1 159/148/1
f 142/151/1 157/149/1 158/169/1
f 144/143/1 158/170/1 160/167/1
f 163/168/1 162/171/1 161/172/1
f 157/149/50 162/173/50 158/169/50
f 158/170/49 164/174/49 160/167/49
f 159/148/65 161/175/65 157/149/65
f 8/1/1 7/25/1 21/2/1
f 14/4/1 13/26/1 29/5/1
f 9/7/1 8/1/1 22/3/1
f 2/9/1 1/12/1 15/10/1
f 1/12/1 14/4/1 30/6/1
f 10/13/1 9/7/1 23/8/1
f 3/15/1 2/9/1 16/11/1
f 11/17/1 10/13/1 24/14/1
f 4/19/1 3/15/1 17/16/1
f 5/21/1 4/19/1 18/20/1
f 6/23/1 5/21/1 19/22/1
f 7/25/1 6/23/1 20/24/1
f 13/26/1 12/176/1 28/27/1
f 20/24/2 36/44/2 37/28/2
f 28/27/3 44/45/3 45/29/3
f 21/2/4 37/28/4 38/30/4
f 29/5/5 45/29/5 46/31/5
f 22/3/6 38/30/6 39/32/6
f 16/11/7 15/10/7 31/33/7
f 30/6/8 46/31/8 31/33/8
f 24/14/9 23/8/9 39/32/9
f 16/11/10 32/34/10 33/36/10
f 24/14/11 40/35/11 41/37/11
f 18/20/12 17/16/12 33/36/12
f 25/18/66 41/37/66 42/39/66
f 18/20/14 34/38/14 35/41/14
f 26/40/67 42/39/67 43/42/67
f 20/24/16 19/22/16 35/41/16
f 27/43/17 43/42/17 44/45/17
f 42/39/1 41/37/1 57/46/1
f 35/41/1 34/38/1 50/48/1
f 43/42/68 42/39/68 58/47/68
f 36/44/1 35/41/1 51/49/1
f 44/45/1 43/42/1 59/50/1
f 37/28/1 36/44/1 52/51/1
f 45/29/1 44/45/1 60/52/1
f 38/30/1 37/28/1 53/53/1
f 46/31/1 45/29/1 61/54/1
f 39/32/1 38/30/1 54/55/1
f 32/34/1 31/33/1 47/58/1
f 31/33/1 46/31/1 62/56/1
f 40/35/1 39/32/1 55/57/1
f 33/36/1 32/34/1 48/59/1
f 41/37/1 40/35/1 56/60/1
f 34/38/1 33/36/1 49/61/1
f 47/58/19 63/63/19 64/62/19
f 62/56/20 77/76/20 63/63/20
f 49/61/21 48/59/21 64/62/21
f 87/177/69 88/87/69 72/65/69
f 72/65/70 57/46/70 56/60/70
f 56/60/71 55/57/71 71/66/71
f 71/66/72 86/82/72 87/177/72
f 87/177/73 72/65/73 71/66/73
f 49/61/74 65/64/74 66/67/74
f 58/47/75 57/46/75 72/65/75
f 50/48/25 66/67/25 67/69/25
f 59/50/26 58/47/26 73/68/26
f 51/49/27 67/69/27 68/71/27
f 59/50/28 74/70/28 75/72/28
f 52/51/29 68/71/29 69/73/29
f 60/52/30 75/72/30 76/74/30
f 53/53/76 69/73/76 70/75/76
f 62/56/32 61/54/32 76/74/32
f 54/55/33 70/75/33 71/66/33
f 68/71/34 83/91/34 84/77/34
f 76/74/35 75/72/35 91/78/35
f 69/73/36 84/77/36 85/80/36
f 76/74/37 92/79/37 93/81/37
f 70/75/38 85/80/38 86/82/38
f 64/62/39 63/63/39 78/83/39
f 63/63/40 77/76/40 93/81/40
f 64/62/41 79/84/41 80/85/41
f 65/64/42 80/85/42 81/86/42
f 73/68/77 72/65/77 88/87/77
f 67/69/44 66/67/44 81/86/44
f 74/70/78 73/68/78 89/88/78
f 67/69/46 82/89/46 83/91/46
f 74/70/79 90/90/79 91/78/79
f 91/78/80 90/90/80 94/92/80
f 80/85/81 79/84/81 90/90/81
f 79/84/82 78/83/82 90/90/82
f 78/83/83 93/81/83 90/90/83
f 93/81/84 92/79/84 90/90/84
f 91/78/1 95/93/1 94/92/1
f 92/79/85 91/78/85 90/90/85
f 81/86/86 80/85/86 90/90/86
f 83/91/87 82/89/87 90/90/87
f 82/89/88 81/86/88 90/90/88
f 85/80/89 84/77/89 90/90/89
f 84/77/90 83/91/90 90/90/90
f 87/177/91 86/82/91 90/90/91
f 86/82/92 85/80/92 90/90/92
f 89/88/93 88/87/93 90/90/93
f 88/87/94 87/177/94 90/90/94
f 20/24/1 21/2/1 102/94/1
f 28/27/1 29/5/1 110/96/1
f 21/2/1 22/3/1 103/98/1
f 29/5/1 30/6/1 111/99/1
f 22/3/1 23/8/1 104/100/1
f 15/10/1 16/11/1 97/101/1
f 30/6/1 15/10/1 96/102/1
f 23/8/1 24/14/1 105/103/1
f 16/11/1 17/16/1 98/104/1
f 24/14/1 25/18/1 106/105/1
f 17/16/1 18/20/1 99/106/1
f 25/18/1 26/40/1 107/107/1
f 18/20/1 19/22/1 100/108/1
f 26/40/1 27/43/1 108/109/1
f 19/22/1 20/24/1 101/95/1
f 27/43/1 28/27/1 109/97/1
f 3/15/1 4/19/1 115/111/1
f 115/111/1 4/19/1 114/113/1
f 118/115/50 120/118/50 119/116/50
f 120/118/51 124/120/51 123/119/51
f 124/120/52 122/122/52 121/121/52
f 122/122/1 118/178/1 117/123/1
f 123/119/53 148/155/53 146/124/53
f 120/125/49 118/179/49 122/122/49
f 126/126/50 128/129/50 127/127/50
f 128/129/51 132/131/51 131/130/51
f 132/131/52 130/133/52 129/132/52
f 130/133/1 126/180/1 125/134/1
f 125/134/54 134/145/54 136/135/54
f 128/136/49 126/181/49 130/133/49
f 135/137/52 136/135/52 140/138/52
f 131/130/55 135/137/55 133/140/55
f 127/127/50 133/140/50 134/141/50
f 131/130/52 129/132/52 136/135/52
f 138/142/56 142/182/56 144/143/56
f 133/140/50 137/146/50 138/144/50
f 134/145/57 138/142/57 140/138/57
f 135/137/58 139/139/58 137/146/58
f 141/147/1 143/150/1 159/148/1
f 139/139/59 143/150/59 141/147/59
f 139/139/52 140/138/52 144/143/52
f 137/146/50 141/147/50 142/151/50
f 145/152/50 146/124/50 150/153/50
f 117/117/50 119/116/50 146/124/50
f 121/121/52 147/156/52 148/155/52
f 117/123/60 145/160/60 147/156/60
f 149/157/61 153/183/61 155/158/61
f 145/160/62 149/157/62 151/159/62
f 148/155/63 152/161/63 150/153/63
f 147/156/52 151/159/52 152/161/52
f 156/162/51 155/158/51 153/163/51
f 152/161/64 156/162/64 154/165/64
f 151/159/52 155/158/52 156/162/52
f 149/154/50 150/153/50 154/165/50
f 160/167/52 164/174/52 163/168/52
f 143/150/1 144/143/1 160/167/1
f 142/151/1 141/147/1 157/149/1
f 144/143/1 142/182/1 158/170/1
f 163/168/1 164/174/1 162/171/1
f 157/149/50 161/175/50 162/173/50
f 158/170/49 162/184/49 164/174/49
f 159/148/65 163/168/65 161/175/65
